<svg id="Capa_1" data-name="Capa 1" xmlns="http://www.w3.org/2000/svg" viewBox="0 0 742.84 800"><title>Vetappoint</title><polygon points="394.94 236.29 344.03 236.29 320.1 84.73 308.9 0.35 348.5 0.35 369.37 185.26 390.34 0.35 429.94 0.35 418.74 84.97 394.94 236.29" style="fill:#9ad4de"/><polygon points="449.98 0.35 542.37 0.35 542.37 37.94 489.23 37.94 489.23 99.46 534.95 99.46 534.95 137.18 489.23 137.18 489.23 198.69 542.37 198.69 542.37 236.29 449.98 236.29 449.98 0.35" style="fill:#9ad4de"/><polygon points="659.4 0.35 659.4 37.94 628.17 37.94 628.17 236.29 588.92 236.29 588.92 37.94 557.7 37.94 557.7 0.35 659.4 0.35" style="fill:#9ad4de"/><path d="M418.74,429.69l-23.8-151.32H344L320.1,430.05l-11.2,84.26h39.48l6.6-49h28.87l6.49,49h39.6Zm-58.81-2.12,9.43-71.42,9.43,71.42Z" style="fill:#55af98"/><path d="M501.48,278.37H450V514.31h39.25V415.2h2.47q15.2,0,23.33-2.59,33.82-11.07,33.82-48.44V329.4Q548.85,278.49,501.48,278.37Zm8.13,85.8q0,9.67-7.43,12.61-1.88.71-8.24.71h-4.71V316h8.84q11.55,0,11.55,13.44Z" style="fill:#55af98"/><path d="M625.11,278.37h-51.5V514.31h39.24V415.2h2.47q15.21,0,23.34-2.59,33.82-11.07,33.82-48.44V329.4Q672.48,278.49,625.11,278.37Zm8.13,85.8q0,9.67-7.42,12.61-1.88.71-8.25.71h-4.71V316h8.84q11.54,0,11.54,13.44Z" style="fill:#55af98"/><path d="M368,556.39q-50.8,0-50.79,50.91V748.73q0,51,50.79,51t50.91-51V607.31Q418.86,556.39,368,556.39Zm11.66,192.33Q379.62,762,368,762T356.4,748.73V607.31q0-13.32,11.43-13.32h.24q11.54.11,11.54,13.32Z" style="fill:#9ad4de"/><rect x="447.74" y="560.04" width="39.24" height="235.94" style="fill:#9ad4de"/><polygon points="518.21 560.04 556.99 560.04 583.15 676.25 583.15 560.04 619.92 560.04 619.92 795.99 581.15 795.99 556.17 682.96 556.17 795.99 518.21 795.99 518.21 560.04" style="fill:#9ad4de"/><polygon points="742.84 560.04 742.84 597.64 711.61 597.64 711.61 795.99 672.36 795.99 672.36 597.64 641.13 597.64 641.13 560.04 742.84 560.04" style="fill:#9ad4de"/><path d="M259.49.35C116.41.35,0,116.76,0,259.84c0,136.5,106,248.65,240,258.67V795.16H279V.35ZM113.28,424.49l19.28-19.28-18.45-18.45L94.83,406A219.41,219.41,0,0,1,39.56,272.88H66.94V246.79H39.56A219.41,219.41,0,0,1,94.83,113.63l19.28,19.28,18.45-18.45L113.28,95.18A219.45,219.45,0,0,1,240,40.4V221.86l-67.49-67.49L154,172.81,240,258.76v2.16L125.24,375.63l18.45,18.45L240,297.81V479.27A219.45,219.45,0,0,1,113.28,424.49Z" style="fill:#55af98"/></svg>